{"accessors":[{"bufferView":0,"componentType":5123,"count":51102,"max":[11051],"min":[0],"type":"SCALAR"},{"bufferView":1,"componentType":5126,"count":11052,"max":[1.0000003576278687,1.0,1.0944095849990845],"min":[-1.0000003576278687,-1.0944095849990845,-1.094409465789795],"type":"VEC3"},{"bufferView":2,"componentType":5126,"count":11052,"max":[1.0,1.0,1.0],"min":[-1.0,-1.0,-1.0],"type":"VEC3"},{"bufferView":3,"componentType":5123,"count":2880,"max":[558],"min":[0],"type":"SCALAR"},{"bufferView":4,"componentType":5126,"count":559,"max":[7.886679649353027,7.886679649353027,7.886679649353027],"min":[-7.886679649353027,-7.886679649353027,-7.886679649353027],"type":"VEC3"},{"bufferView":5,"componentType":5126,"count":559,"max":[1.0,1.0,1.0],"min":[-1.0,-1.0,-1.0],"type":"VEC3"},{"bufferView":6,"componentType":5126,"count":559,"max":[1.000000238418579,1.0000001192092896],"min":[0.0,0.0],"type":"VEC2"}],"asset":{"generator":"Soft8Soft Verge3D for 3ds Max plug-in","version":"2.0"},"bufferViews":[{"buffer":0,"byteLength":102204,"byteOffset":0,"target":34963},{"buffer":0,"byteLength":132624,"byteOffset":102204,"target":34962},{"buffer":0,"byteLength":132624,"byteOffset":234828,"target":34962},{"buffer":0,"byteLength":5760,"byteOffset":367452,"target":34963},{"buffer":0,"byteLength":6708,"byteOffset":373212,"target":34962},{"buffer":0,"byteLength":6708,"byteOffset":379920,"target":34962},{"buffer":0,"byteLength":4472,"byteOffset":386628,"target":34962}],"buffers":[{"byteLength":391100,"uri":"template.bin"}],"cameras":[{"extensions":{"S8S_v3d_camera_data":{"controls":"ORBIT","enablePan":true,"moveSpeed":1.0,"orbitMaxDistance":5000.0,"orbitMaxPolarAngle":3.141592653589793,"orbitMaxZoom":100.0,"orbitMinDistance":0.0,"orbitMinPolarAngle":0.0,"orbitMinZoom":0.009999999776482582,"orbitTarget":1,"rotateSpeed":1.0,"viewportFitInitialAspect":1.3333333333333333,"viewportFitType":"VERTICAL"}},"name":"Camera001","perspective":{"aspectRatio":1.3333333333333333,"yfov":0.6024156981946759,"zfar":1000.0,"znear":1.0},"type":"perspective"}],"extensions":{"S8S_v3d_data":{"lights":[{"color":[0,0,0],"intensity":1,"name":"__AMBIENT__","profile":"max","type":"ambient"}]}},"extensionsUsed":["S8S_v3d_texture_data","S8S_v3d_material_data","S8S_v3d_camera_data","S8S_v3d_data","S8S_v3d_node_data","S8S_v3d_scene_data"],"images":[{"uri":"environment.hdr"}],"materials":[{"doubleSided":false,"extensions":{"S8S_v3d_material_data":{"nodeGraph":{"edges":[{"fromNode":1,"fromOutput":0,"toInput":0,"toNode":0},{"fromNode":1,"fromOutput":1,"toInput":1,"toNode":0}],"nodes":[{"inputs":[[1,1,1,1]],"is_active_output":true,"name":"MaxOutput","outputs":[],"type":"OUTPUT_MX"},{"brdfCurve":5.0,"brdfHigh":1.0,"brdfLow":0.05000000074505806,"brdfMode":true,"emitLuminance":1500.0,"inputFactors":[0,0,0,0,0,0,0,0,0,0,0,0,0,0,0,0,0,0,0,0,0,0,0,0,0],"inputs":[1.0,[0.8588235294117647,0.4823529411764706,0.0392156862745098,1.0],1.0,[1.0,1.0,1.0,1.0],0.0,1.0,0.0,1.0,0.0,0.0,[1.0,1.0,1.0,1.0],0.0,1.5199999809265137,0.0,[1.0,1.0,1.0,1.0],1.0,0.0,[1.0,1.0,1.0,1.0],0.0,[1.0,1.0,1.0,1.0],0.0,[0,0,0],[0,0,0],0,0],"is_active_output":false,"name":"template_material","outputs":[[0,0,0,0]],"roughnessInv":false,"thinWalled":false,"transRoughnessInv":false,"transRoughnessLock":true,"type":"PHYSICAL_MX"}]},"profile":"max"}},"name":"template_material"},{"doubleSided":true,"extensions":{"S8S_v3d_material_data":{"nodeGraph":{"edges":[{"fromNode":1,"fromOutput":0,"toInput":0,"toNode":0},{"fromNode":1,"fromOutput":1,"toInput":1,"toNode":0}],"nodes":[{"inputs":[[1,1,1,1]],"is_active_output":true,"name":"MaxOutput","outputs":[],"type":"OUTPUT_MX"},{"brdfCurve":5.0,"brdfHigh":1.0,"brdfLow":0.05000000074505806,"brdfMode":true,"emitLuminance":1500.0,"inputFactors":[0,0,0,0,0,0,0,0,0,0,0,0,0,0,0,0,0,0,0,0,0,0,0,0,0],"inputs":[1.0,[0.0,0.0,0.0,1.0],0.0,[1.0,1.0,1.0,1.0],0.0,0.0,0.0,1.0,0.0,0.0,[1.0,1.0,1.0,1.0],0.0,1.5199999809265137,0.0,[1.0,1.0,1.0,1.0],1.0,1.0,[0.0,0.0,0.0,1.0],0.0,[1.0,1.0,1.0,1.0],0.0,[0,0,0],[0,0,0],0,0],"is_active_output":false,"name":"environment","outputs":[[0,0,0,0]],"roughnessInv":false,"thinWalled":false,"transRoughnessInv":false,"transRoughnessLock":true,"type":"PHYSICAL_MX"}]},"profile":"max"}},"name":"environment"},{"extensions":{"S8S_v3d_material_data":{"nodeGraph":{"edges":[{"fromNode":1,"fromOutput":0,"toInput":0,"toNode":0},{"fromNode":1,"fromOutput":1,"toInput":1,"toNode":0}],"nodes":[{"inputs":[[1,1,1,1]],"is_active_output":true,"name":"MaxOutput","outputs":[],"type":"OUTPUT_MX"},{"alphaAsMono":false,"alphaAsRGB":false,"alphaSource":"FILE","axis":"XY","clampToEdgeNoExtend":[false,false],"inputs":[0.0,0.0,1.0,1.0,0.0],"is_active_output":false,"mapping":"SPHERICAL_ENVIRONMENT","name":"Map #4","outputs":[[0,0,0,0]],"texture":0,"type":"BITMAP_ENV_MX","uvIndex":0}]},"profile":"max"}},"name":"Verge3D_Environment"}],"meshes":[{"name":"Box001","primitives":[{"attributes":{"NORMAL":2,"POSITION":1},"indices":0,"material":0,"mode":4}]},{"name":"Sphere001","primitives":[{"attributes":{"NORMAL":5,"POSITION":4,"TEXCOORD_0":6},"indices":3,"material":1,"mode":4}]}],"nodes":[{"camera":0,"extensions":{"S8S_v3d_node_data":{"hidden":false}},"name":"Camera001","rotation":[0.08900540322065353,0.8938865661621094,0.20462647080421448,-0.38880953192710876],"scale":[1.0,0.9999999403953552,1.0],"translation":[-5.690950393676758,3.7494401931762695,-5.307329177856445]},{"extensions":{"S8S_v3d_node_data":{"hidden":false}},"name":"Camera001.Target","translation":[-0.014039196074008942,0.0,-0.016250325366854668]},{"extensions":{"S8S_v3d_node_data":{"frustumCulling":true,"hidden":false,"renderOrder":0,"useCastShadows":true,"useShadows":true}},"mesh":0,"name":"Box001","rotation":[-0.0,4.371138828673793e-08,0.0,1.0]},{"extensions":{"S8S_v3d_node_data":{"frustumCulling":true,"hidden":false,"renderOrder":0,"useCastShadows":true,"useShadows":true}},"mesh":1,"name":"Sphere001","scale":[1.7643249034881592,1.7643249034881592,1.7643249034881592],"translation":[0.015484086237847805,0.0,-0.007615028880536556]}],"samplers":[{}],"scene":0,"scenes":[{"extensions":{"S8S_v3d_scene_data":{"aaMethod":"AUTO","iblEnvironmentMode":"PMREM","light":0,"pmremMaxTileSize":256,"postprocessing":[],"shadowMap":{"esmDistanceScale":0.30000001192092896,"renderReverseSided":false,"renderSingleSided":true,"type":"PCFPOISSON"},"worldMaterial":2}},"extras":{"animFrameRate":30,"coordSystem":"Z_UP_RIGHT"},"name":"Scene","nodes":[0,1,2,3]}],"textures":[{"extensions":{"S8S_v3d_texture_data":{"colorSpace":"linear"}},"name":"Map #4","sampler":0,"source":0}]}
