<?xml version="1.0" encoding="UTF-8" standalone="no"?>
<svg
   xmlns:dc="http://purl.org/dc/elements/1.1/"
   xmlns:cc="http://creativecommons.org/ns#"
   xmlns:rdf="http://www.w3.org/1999/02/22-rdf-syntax-ns#"
   xmlns:svg="http://www.w3.org/2000/svg"
   xmlns="http://www.w3.org/2000/svg"
   xmlns:sodipodi="http://sodipodi.sourceforge.net/DTD/sodipodi-0.dtd"
   xmlns:inkscape="http://www.inkscape.org/namespaces/inkscape"
   sodipodi:docname="area.svg"
   inkscape:version="1.0 (4035a4fb49, 2020-05-01)"
   id="svg1189"
   version="1.1"
   viewBox="0 0 15.875 15.875"
   height="60"
   width="60">
  <defs
     id="defs1183">
    <marker
       inkscape:isstock="true"
       style="overflow:visible"
       id="StopS"
       refX="0.0"
       refY="0.0"
       orient="auto"
       inkscape:stockid="StopS">
      <path
         transform="scale(0.2)"
         style="fill:none;fill-opacity:0.75;fill-rule:evenodd;stroke:#000000;stroke-width:1pt;stroke-opacity:1"
         d="M 0.0,5.65 L 0.0,-5.65"
         id="path1931" />
    </marker>
    <marker
       inkscape:isstock="true"
       style="overflow:visible"
       id="TriangleInS"
       refX="0.0"
       refY="0.0"
       orient="auto"
       inkscape:stockid="TriangleInS">
      <path
         transform="scale(-0.2)"
         style="fill-rule:evenodd;stroke:#000000;stroke-width:1pt;stroke-opacity:1;fill:#000000;fill-opacity:1"
         d="M 5.77,0.0 L -2.88,5.0 L -2.88,-5.0 L 5.77,0.0 z "
         id="path1895" />
    </marker>
    <marker
       inkscape:isstock="true"
       style="overflow:visible"
       id="DiamondS"
       refX="0.0"
       refY="0.0"
       orient="auto"
       inkscape:stockid="DiamondS">
      <path
         transform="scale(0.2)"
         style="fill-rule:evenodd;stroke:#000000;stroke-width:1pt;stroke-opacity:1;fill:#000000;fill-opacity:1"
         d="M 0,-7.0710768 L -7.0710894,0 L 0,7.0710589 L 7.0710462,0 L 0,-7.0710768 z "
         id="path1841" />
    </marker>
    <marker
       inkscape:isstock="true"
       style="overflow:visible"
       id="Arrow1Sstart"
       refX="0.0"
       refY="0.0"
       orient="auto"
       inkscape:stockid="Arrow1Sstart">
      <path
         transform="scale(0.2) translate(6,0)"
         style="fill-rule:evenodd;stroke:#000000;stroke-width:1pt;stroke-opacity:1;fill:#000000;fill-opacity:1"
         d="M 0.0,0.0 L 5.0,-5.0 L -12.5,0.0 L 5.0,5.0 L 0.0,0.0 z "
         id="path1768" />
    </marker>
    <marker
       inkscape:isstock="true"
       style="overflow:visible;"
       id="Arrow1Send"
       refX="0.0"
       refY="0.0"
       orient="auto"
       inkscape:stockid="Arrow1Send">
      <path
         transform="scale(0.2) rotate(180) translate(6,0)"
         style="fill-rule:evenodd;stroke:#000000;stroke-width:1pt;stroke-opacity:1;fill:#000000;fill-opacity:1"
         d="M 0.0,0.0 L 5.0,-5.0 L -12.5,0.0 L 5.0,5.0 L 0.0,0.0 z "
         id="path1771" />
    </marker>
    <marker
       inkscape:isstock="true"
       style="overflow:visible"
       id="Arrow1Mstart"
       refX="0.0"
       refY="0.0"
       orient="auto"
       inkscape:stockid="Arrow1Mstart">
      <path
         transform="scale(0.4) translate(10,0)"
         style="fill-rule:evenodd;stroke:#000000;stroke-width:1pt;stroke-opacity:1;fill:#000000;fill-opacity:1"
         d="M 0.0,0.0 L 5.0,-5.0 L -12.5,0.0 L 5.0,5.0 L 0.0,0.0 z "
         id="path1762" />
    </marker>
  </defs>
  <sodipodi:namedview
     inkscape:window-maximized="1"
     inkscape:window-y="-8"
     inkscape:window-x="1912"
     inkscape:window-height="1177"
     inkscape:window-width="1920"
     units="px"
     showgrid="false"
     inkscape:document-rotation="0"
     inkscape:current-layer="layer1"
     inkscape:document-units="mm"
     inkscape:cy="-1.7751436"
     inkscape:cx="-2.0752568"
     inkscape:zoom="3.959798"
     inkscape:pageshadow="2"
     inkscape:pageopacity="0.0"
     borderopacity="1.0"
     bordercolor="#666666"
     pagecolor="#ffffff"
     id="base" />
  <metadata
     id="metadata1186">
    <rdf:RDF>
      <cc:Work
         rdf:about="">
        <dc:format>image/svg+xml</dc:format>
        <dc:type
           rdf:resource="http://purl.org/dc/dcmitype/StillImage" />
        <dc:title></dc:title>
      </cc:Work>
    </rdf:RDF>
  </metadata>
  <g
     id="layer1"
     inkscape:groupmode="layer"
     inkscape:label="Layer 1">
    <g
       style="display:inline;fill:#ffffff;enable-background:new"
       id="g12674"
       transform="matrix(1.0955072,0,0,1.0955072,-374.3965,-356.86323)"
       inkscape:export-filename="C:\Users\Andrzej Ambroż\Desktop\mtrx.png"
       inkscape:export-xdpi="96"
       inkscape:export-ydpi="96">
      <path
         style="opacity:1;vector-effect:none;fill:#ffffff;fill-opacity:1;stroke:none;stroke-width:1;stroke-linecap:round;stroke-linejoin:round;stroke-miterlimit:3.7;stroke-dasharray:none;stroke-dashoffset:0;stroke-opacity:1;marker:none"
         d="m 343.50586,388.99219 a 0.50005,0.50005 0 0 0 -0.35547,0.14648 l -1.00391,1.00781 a 0.50005,0.50005 0 0 0 -0.0937,0.57618 l 3,6 a 0.50005,0.50005 0 1 0 0.89454,-0.44532 l -2.83985,-5.67968 0.60547,-0.60547 h 6.4707 l 4.72266,10.39062 -0.60937,0.60938 -5.98633,0.008 -0.35743,-0.72656 a 0.50005,0.50005 0 1 0 -0.89648,0.4414 l 0.49414,1.00586 A 0.50005,0.50005 0 0 0 348,402 l 6.50586,-0.008 a 0.50005,0.50005 0 0 0 0.35352,-0.14649 l 1,-1 a 0.50005,0.50005 0 0 0 0.10156,-0.56054 l -5,-11 a 0.50005,0.50005 0 0 0 -0.45508,-0.29297 z m 5.5,6.00195 a 1,1 0 0 0 -1,1 1,1 0 0 0 0.0332,0.25977 l -0.14258,0.14257 a 0.50005,0.50005 0 1 0 0.70704,0.70704 l 0.14453,-0.14454 a 1,1 0 0 0 0.25781,0.0352 1,1 0 0 0 1,-1 1,1 0 0 0 -1,-1 z m -2.50977,2.99219 a 0.50005,0.50005 0 0 0 -0.34375,0.15234 l -1,1 a 0.50005,0.50005 0 1 0 0.70704,0.70703 l 1,-1 a 0.50005,0.50005 0 0 0 -0.36329,-0.85937 z m -3.00195,3 a 0.50005,0.50005 0 0 0 -0.34375,0.15234 l -1,1.00391 a 0.50005,0.50005 0 1 0 0.70899,0.70508 l 1,-1.00391 a 0.50005,0.50005 0 0 0 -0.36524,-0.85742 z"
         transform="translate(1.8536743e-6,-63.000005)"
         id="circle12662"
         inkscape:connector-curvature="0" />
    </g>
  </g>
</svg>
