<?xml version="1.0" encoding="UTF-8" standalone="no"?>
<svg
   xmlns:dc="http://purl.org/dc/elements/1.1/"
   xmlns:cc="http://creativecommons.org/ns#"
   xmlns:rdf="http://www.w3.org/1999/02/22-rdf-syntax-ns#"
   xmlns:svg="http://www.w3.org/2000/svg"
   xmlns="http://www.w3.org/2000/svg"
   xmlns:sodipodi="http://sodipodi.sourceforge.net/DTD/sodipodi-0.dtd"
   xmlns:inkscape="http://www.inkscape.org/namespaces/inkscape"
   sodipodi:docname="spot.svg"
   inkscape:version="1.0 (4035a4fb49, 2020-05-01)"
   id="svg1189"
   version="1.1"
   viewBox="0 0 15.875 15.875"
   height="60"
   width="60">
  <defs
     id="defs1183">
    <marker
       inkscape:isstock="true"
       style="overflow:visible"
       id="StopS"
       refX="0.0"
       refY="0.0"
       orient="auto"
       inkscape:stockid="StopS">
      <path
         transform="scale(0.2)"
         style="fill:none;fill-opacity:0.75;fill-rule:evenodd;stroke:#000000;stroke-width:1pt;stroke-opacity:1"
         d="M 0.0,5.65 L 0.0,-5.65"
         id="path1931" />
    </marker>
    <marker
       inkscape:isstock="true"
       style="overflow:visible"
       id="TriangleInS"
       refX="0.0"
       refY="0.0"
       orient="auto"
       inkscape:stockid="TriangleInS">
      <path
         transform="scale(-0.2)"
         style="fill-rule:evenodd;stroke:#000000;stroke-width:1pt;stroke-opacity:1;fill:#000000;fill-opacity:1"
         d="M 5.77,0.0 L -2.88,5.0 L -2.88,-5.0 L 5.77,0.0 z "
         id="path1895" />
    </marker>
    <marker
       inkscape:isstock="true"
       style="overflow:visible"
       id="DiamondS"
       refX="0.0"
       refY="0.0"
       orient="auto"
       inkscape:stockid="DiamondS">
      <path
         transform="scale(0.2)"
         style="fill-rule:evenodd;stroke:#000000;stroke-width:1pt;stroke-opacity:1;fill:#000000;fill-opacity:1"
         d="M 0,-7.0710768 L -7.0710894,0 L 0,7.0710589 L 7.0710462,0 L 0,-7.0710768 z "
         id="path1841" />
    </marker>
    <marker
       inkscape:isstock="true"
       style="overflow:visible"
       id="Arrow1Sstart"
       refX="0.0"
       refY="0.0"
       orient="auto"
       inkscape:stockid="Arrow1Sstart">
      <path
         transform="scale(0.2) translate(6,0)"
         style="fill-rule:evenodd;stroke:#000000;stroke-width:1pt;stroke-opacity:1;fill:#000000;fill-opacity:1"
         d="M 0.0,0.0 L 5.0,-5.0 L -12.5,0.0 L 5.0,5.0 L 0.0,0.0 z "
         id="path1768" />
    </marker>
    <marker
       inkscape:isstock="true"
       style="overflow:visible;"
       id="Arrow1Send"
       refX="0.0"
       refY="0.0"
       orient="auto"
       inkscape:stockid="Arrow1Send">
      <path
         transform="scale(0.2) rotate(180) translate(6,0)"
         style="fill-rule:evenodd;stroke:#000000;stroke-width:1pt;stroke-opacity:1;fill:#000000;fill-opacity:1"
         d="M 0.0,0.0 L 5.0,-5.0 L -12.5,0.0 L 5.0,5.0 L 0.0,0.0 z "
         id="path1771" />
    </marker>
    <marker
       inkscape:isstock="true"
       style="overflow:visible"
       id="Arrow1Mstart"
       refX="0.0"
       refY="0.0"
       orient="auto"
       inkscape:stockid="Arrow1Mstart">
      <path
         transform="scale(0.4) translate(10,0)"
         style="fill-rule:evenodd;stroke:#000000;stroke-width:1pt;stroke-opacity:1;fill:#000000;fill-opacity:1"
         d="M 0.0,0.0 L 5.0,-5.0 L -12.5,0.0 L 5.0,5.0 L 0.0,0.0 z "
         id="path1762" />
    </marker>
  </defs>
  <sodipodi:namedview
     inkscape:window-maximized="1"
     inkscape:window-y="-8"
     inkscape:window-x="1912"
     inkscape:window-height="1177"
     inkscape:window-width="1920"
     units="px"
     showgrid="false"
     inkscape:document-rotation="0"
     inkscape:current-layer="layer1"
     inkscape:document-units="mm"
     inkscape:cy="4.7908479"
     inkscape:cx="-1.8227187"
     inkscape:zoom="3.959798"
     inkscape:pageshadow="2"
     inkscape:pageopacity="0.0"
     borderopacity="1.0"
     bordercolor="#666666"
     pagecolor="#ffffff"
     id="base" />
  <metadata
     id="metadata1186">
    <rdf:RDF>
      <cc:Work
         rdf:about="">
        <dc:format>image/svg+xml</dc:format>
        <dc:type
           rdf:resource="http://purl.org/dc/dcmitype/StillImage" />
        <dc:title></dc:title>
      </cc:Work>
    </rdf:RDF>
  </metadata>
  <g
     id="layer1"
     inkscape:groupmode="layer"
     inkscape:label="Layer 1">
    <g
       style="display:inline;fill:#ffffff;enable-background:new"
       id="g12687"
       transform="matrix(1.0964228,0,0,1.0964228,-328.64045,-380.20974)"
       inkscape:export-filename="C:\Users\Andrzej Ambroż\Desktop\mtrx.png"
       inkscape:export-xdpi="96"
       inkscape:export-ydpi="96">
      <path
         style="color:#000000;font-style:normal;font-variant:normal;font-weight:normal;font-stretch:normal;font-size:medium;line-height:normal;font-family:sans-serif;font-variant-ligatures:normal;font-variant-position:normal;font-variant-caps:normal;font-variant-numeric:normal;font-variant-alternates:normal;font-feature-settings:normal;text-indent:0;text-align:start;text-decoration:none;text-decoration-line:none;text-decoration-style:solid;text-decoration-color:#000000;letter-spacing:normal;word-spacing:normal;text-transform:none;writing-mode:lr-tb;direction:ltr;text-orientation:mixed;dominant-baseline:auto;baseline-shift:baseline;text-anchor:start;white-space:normal;shape-padding:0;clip-rule:nonzero;display:inline;overflow:visible;visibility:visible;opacity:1;isolation:auto;mix-blend-mode:normal;color-interpolation:sRGB;color-interpolation-filters:linearRGB;solid-color:#000000;solid-opacity:1;vector-effect:none;fill:#ffffff;fill-opacity:1;fill-rule:nonzero;stroke:none;stroke-width:1;stroke-linecap:round;stroke-linejoin:round;stroke-miterlimit:4;stroke-dasharray:none;stroke-dashoffset:0;stroke-opacity:1;marker:none;color-rendering:auto;image-rendering:auto;shape-rendering:auto;text-rendering:auto;enable-background:new"
         d="m 313.48633,389.00977 a 0.50005,0.50005 0 0 0 -0.13281,0.0156 l -10.64454,2.70117 a 0.50005,0.50005 0 0 0 -0.0176,0.006 c -0.39202,0.1157 -0.73529,0.32904 -1.00782,0.60156 -0.57977,0.57978 -0.79354,1.4303 -0.73828,2.33399 0.0553,0.90369 0.37679,1.88678 0.94141,2.83789 a 0.50005,0.50005 0 0 0 0,0.002 c 0.0547,0.092 0.11038,0.1837 0.16992,0.27539 a 0.50056694,0.50056694 0 1 0 0.83984,-0.54492 c -0.0521,-0.0802 -0.10227,-0.16121 -0.15039,-0.24219 -0.4939,-0.83198 -0.75942,-1.68043 -0.80273,-2.38867 -0.0433,-0.70823 0.13039,-1.24953 0.44726,-1.5664 0.16272,-0.16272 0.36207,-0.28412 0.58399,-0.34961 l 9.81055,-2.49024 -2.49024,9.81445 c -0.0654,0.2249 -0.18247,0.41294 -0.34961,0.58008 -0.32315,0.32316 -0.90925,0.49604 -1.67187,0.42578 -0.76263,-0.0702 -1.66859,-0.38268 -2.52735,-0.93164 a 0.50005,0.50005 0 1 0 -0.53906,0.8418 c 0.97998,0.62645 2.02029,0.99785 2.97656,1.08594 0.95627,0.0881 1.86106,-0.10716 2.46875,-0.71485 0.27194,-0.27193 0.4884,-0.61189 0.60352,-1.00781 a 0.50005,0.50005 0 0 0 0.004,-0.0176 l 2.70117,-10.64453 a 0.50005,0.50005 0 0 0 -0.47461,-0.62304 z M 308,393.99414 a 1,1 0 0 0 -1,1 1,1 0 0 0 0.0352,0.25586 l -0.88868,0.88867 a 0.50005,0.50005 0 1 0 0.70704,0.70703 l 0.88671,-0.88672 a 1,1 0 0 0 0.25977,0.0352 1,1 0 0 0 1,-1 1,1 0 0 0 -1,-1 z m -3.50977,3.99219 a 0.50005,0.50005 0 0 0 -0.34375,0.15234 l -1,1 a 0.50005,0.50005 0 1 0 0.70704,0.70703 l 1,-1 a 0.50005,0.50005 0 0 0 -0.36329,-0.85937 z m -3.00195,3 a 0.50005,0.50005 0 0 0 -0.3418,0.15234 l -1,1.00391 a 0.50005,0.50005 0 1 0 0.70704,0.70508 l 1,-1.00391 a 0.50005,0.50005 0 0 0 -0.36524,-0.85742 z"
         transform="translate(1.8536743e-6,-42.000005)"
         id="path7527-5"
         inkscape:connector-curvature="0" />
    </g>
  </g>
</svg>
