<?xml version="1.0" encoding="UTF-8" standalone="no"?>
<svg
   xmlns:dc="http://purl.org/dc/elements/1.1/"
   xmlns:cc="http://creativecommons.org/ns#"
   xmlns:rdf="http://www.w3.org/1999/02/22-rdf-syntax-ns#"
   xmlns:svg="http://www.w3.org/2000/svg"
   xmlns="http://www.w3.org/2000/svg"
   xmlns:sodipodi="http://sodipodi.sourceforge.net/DTD/sodipodi-0.dtd"
   xmlns:inkscape="http://www.inkscape.org/namespaces/inkscape"
   sodipodi:docname="sun.svg"
   inkscape:version="1.0 (4035a4fb49, 2020-05-01)"
   id="svg1189"
   version="1.1"
   viewBox="0 0 15.875 15.875"
   height="60"
   width="60">
  <defs
     id="defs1183">
    <marker
       inkscape:isstock="true"
       style="overflow:visible"
       id="StopS"
       refX="0.0"
       refY="0.0"
       orient="auto"
       inkscape:stockid="StopS">
      <path
         transform="scale(0.2)"
         style="fill:none;fill-opacity:0.75;fill-rule:evenodd;stroke:#000000;stroke-width:1pt;stroke-opacity:1"
         d="M 0.0,5.65 L 0.0,-5.65"
         id="path1931" />
    </marker>
    <marker
       inkscape:isstock="true"
       style="overflow:visible"
       id="TriangleInS"
       refX="0.0"
       refY="0.0"
       orient="auto"
       inkscape:stockid="TriangleInS">
      <path
         transform="scale(-0.2)"
         style="fill-rule:evenodd;stroke:#000000;stroke-width:1pt;stroke-opacity:1;fill:#000000;fill-opacity:1"
         d="M 5.77,0.0 L -2.88,5.0 L -2.88,-5.0 L 5.77,0.0 z "
         id="path1895" />
    </marker>
    <marker
       inkscape:isstock="true"
       style="overflow:visible"
       id="DiamondS"
       refX="0.0"
       refY="0.0"
       orient="auto"
       inkscape:stockid="DiamondS">
      <path
         transform="scale(0.2)"
         style="fill-rule:evenodd;stroke:#000000;stroke-width:1pt;stroke-opacity:1;fill:#000000;fill-opacity:1"
         d="M 0,-7.0710768 L -7.0710894,0 L 0,7.0710589 L 7.0710462,0 L 0,-7.0710768 z "
         id="path1841" />
    </marker>
    <marker
       inkscape:isstock="true"
       style="overflow:visible"
       id="Arrow1Sstart"
       refX="0.0"
       refY="0.0"
       orient="auto"
       inkscape:stockid="Arrow1Sstart">
      <path
         transform="scale(0.2) translate(6,0)"
         style="fill-rule:evenodd;stroke:#000000;stroke-width:1pt;stroke-opacity:1;fill:#000000;fill-opacity:1"
         d="M 0.0,0.0 L 5.0,-5.0 L -12.5,0.0 L 5.0,5.0 L 0.0,0.0 z "
         id="path1768" />
    </marker>
    <marker
       inkscape:isstock="true"
       style="overflow:visible;"
       id="Arrow1Send"
       refX="0.0"
       refY="0.0"
       orient="auto"
       inkscape:stockid="Arrow1Send">
      <path
         transform="scale(0.2) rotate(180) translate(6,0)"
         style="fill-rule:evenodd;stroke:#000000;stroke-width:1pt;stroke-opacity:1;fill:#000000;fill-opacity:1"
         d="M 0.0,0.0 L 5.0,-5.0 L -12.5,0.0 L 5.0,5.0 L 0.0,0.0 z "
         id="path1771" />
    </marker>
    <marker
       inkscape:isstock="true"
       style="overflow:visible"
       id="Arrow1Mstart"
       refX="0.0"
       refY="0.0"
       orient="auto"
       inkscape:stockid="Arrow1Mstart">
      <path
         transform="scale(0.4) translate(10,0)"
         style="fill-rule:evenodd;stroke:#000000;stroke-width:1pt;stroke-opacity:1;fill:#000000;fill-opacity:1"
         d="M 0.0,0.0 L 5.0,-5.0 L -12.5,0.0 L 5.0,5.0 L 0.0,0.0 z "
         id="path1762" />
    </marker>
  </defs>
  <sodipodi:namedview
     inkscape:window-maximized="1"
     inkscape:window-y="-8"
     inkscape:window-x="1912"
     inkscape:window-height="1177"
     inkscape:window-width="1920"
     units="px"
     showgrid="false"
     inkscape:document-rotation="0"
     inkscape:current-layer="layer1"
     inkscape:document-units="mm"
     inkscape:cy="7.3162293"
     inkscape:cx="17.622718"
     inkscape:zoom="3.959798"
     inkscape:pageshadow="2"
     inkscape:pageopacity="0.0"
     borderopacity="1.0"
     bordercolor="#666666"
     pagecolor="#ffffff"
     id="base" />
  <metadata
     id="metadata1186">
    <rdf:RDF>
      <cc:Work
         rdf:about="">
        <dc:format>image/svg+xml</dc:format>
        <dc:type
           rdf:resource="http://purl.org/dc/dcmitype/StillImage" />
        <dc:title></dc:title>
      </cc:Work>
    </rdf:RDF>
  </metadata>
  <g
     id="layer1"
     inkscape:groupmode="layer"
     inkscape:label="Layer 1">
    <g
       id="g12575"
       transform="matrix(0.94995315,0,0,0.94995315,-582.94117,-408.12997)"
       style="display:inline;opacity:1;fill:#ffffff;stroke-width:1.15385;enable-background:new"
       inkscape:export-filename="C:\Users\Andrzej Ambroż\Desktop\mtrx.png"
       inkscape:export-xdpi="96"
       inkscape:export-ydpi="96">
      <path
         style="color:#000000;font-style:normal;font-variant:normal;font-weight:normal;font-stretch:normal;font-size:medium;line-height:normal;font-family:sans-serif;font-variant-ligatures:normal;font-variant-position:normal;font-variant-caps:normal;font-variant-numeric:normal;font-variant-alternates:normal;font-feature-settings:normal;text-indent:0;text-align:start;text-decoration:none;text-decoration-line:none;text-decoration-style:solid;text-decoration-color:#000000;letter-spacing:normal;word-spacing:normal;text-transform:none;writing-mode:lr-tb;direction:ltr;text-orientation:mixed;dominant-baseline:auto;baseline-shift:baseline;text-anchor:start;white-space:normal;shape-padding:0;clip-rule:nonzero;display:inline;overflow:visible;visibility:visible;opacity:1;isolation:auto;mix-blend-mode:normal;color-interpolation:sRGB;color-interpolation-filters:linearRGB;solid-color:#000000;solid-opacity:1;vector-effect:none;fill:#ffffff;fill-opacity:1;fill-rule:nonzero;stroke:none;stroke-width:1;stroke-linecap:round;stroke-linejoin:round;stroke-miterlimit:4;stroke-dasharray:none;stroke-dashoffset:0;stroke-opacity:1;marker:none;color-rendering:auto;image-rendering:auto;shape-rendering:auto;text-rendering:auto;enable-background:accumulate"
         d="m 285.49219,388.99219 c -0.2763,0.004 -0.49651,0.23152 -0.49219,0.50781 v 2.6543 c -0.76567,0.19832 -1.43883,0.61396 -1.95508,1.18359 l -2.1914,-2.19141 c -0.0944,-0.0966 -0.22433,-0.15264 -0.35938,-0.15234 -0.4485,2.4e-4 -0.66889,0.54638 -0.34766,0.85938 l 2.32032,2.32031 C 282.17933,394.72335 282.0013,395.33918 282,396 h -2.5 c -0.66693,0 -0.66693,1 0,1 h 2.64062 c 0.19916,0.76891 0.61811,1.44388 1.19141,1.96094 l -2.18555,2.18554 c -0.4717,0.4717 0.23534,1.17874 0.70704,0.70704 l 2.3164,-2.31641 c 0.54947,0.28561 1.16223,0.46289 1.82227,0.46289 0.003,0 0.005,10e-6 0.008,0 v 2.5 c 0,0.66693 1,0.66693 1,0 v -2.64648 c 0.76569,-0.20169 1.4388,-0.6203 1.95312,-1.19336 l 2.19336,2.19336 c 0.47143,0.50593 1.2141,-0.23683 0.70704,-0.70704 l -2.32422,-2.32421 c 0.28283,-0.54738 0.45703,-1.15786 0.45703,-1.81446 0,-0.003 0,-0.005 0,-0.008 H 292.5 c 0.66693,0 0.66693,-1 0,-1 h -2.66016 c -0.20083,-0.76245 -0.61615,-1.43374 -1.18554,-1.94727 l 2.19922,-2.19921 c 0.32695,-0.31816 0.0927,-0.87325 -0.36329,-0.85938 -0.12999,0.004 -0.25338,0.0589 -0.34375,0.15234 l -2.33007,2.33008 C 287.26914,392.1921 286.6571,392.01496 286,392.01367 V 389.5 c 0.004,-0.28226 -0.22555,-0.51222 -0.50781,-0.50781 z m 0.5,4.02148 c 1.65884,0 2.99414,1.3353 2.99414,2.99414 0,1.65885 -1.3353,2.99219 -2.99414,2.99219 C 284.33334,399 283,397.66666 283,396.00781 c 0,-1.65884 1.33334,-2.99414 2.99219,-2.99414 z"
         transform="matrix(1.1538464,0,0,1.1538464,292.00815,-18.931386)"
         id="circle12556"
         inkscape:connector-curvature="0" />
    </g>
  </g>
</svg>
